<svg viewBox="0 0 600 300" xmlns="http://www.w3.org/2000/svg" font-family="system-ui,sans-serif">
  <defs>
    <linearGradient id="abg" x1="0" y1="0" x2="1" y2="1">
      <stop offset="0%" stop-color="#0d1117"/>
      <stop offset="100%" stop-color="#0f1620"/>
    </linearGradient>
    <linearGradient id="anode" x1="0" y1="0" x2="1" y2="1">
      <stop offset="0%" stop-color="#1e2c45"/>
      <stop offset="100%" stop-color="#151d2e"/>
    </linearGradient>
    <linearGradient id="afox" x1="0" y1="0" x2="1" y2="1">
      <stop offset="0%" stop-color="#e8761a"/>
      <stop offset="100%" stop-color="#f59e3a"/>
    </linearGradient>
    <filter id="aglow">
      <feGaussianBlur stdDeviation="5" result="blur"/>
      <feMerge><feMergeNode in="blur"/><feMergeNode in="SourceGraphic"/></feMerge>
    </filter>
    <filter id="aglow2">
      <feGaussianBlur stdDeviation="12" result="blur"/>
      <feMerge><feMergeNode in="blur"/><feMergeNode in="SourceGraphic"/></feMerge>
    </filter>
    <marker id="arr" markerWidth="8" markerHeight="8" refX="6" refY="3" orient="auto">
      <path d="M0,0 L0,6 L8,3 z" fill="#e8761a" opacity="0.6"/>
    </marker>
    <marker id="arr2" markerWidth="8" markerHeight="8" refX="6" refY="3" orient="auto">
      <path d="M0,0 L0,6 L8,3 z" fill="#2dc3af" opacity="0.6"/>
    </marker>
    <marker id="arr3" markerWidth="8" markerHeight="8" refX="6" refY="3" orient="auto">
      <path d="M0,0 L0,6 L8,3 z" fill="#8b5cf6" opacity="0.6"/>
    </marker>
  </defs>

  <rect width="600" height="300" fill="url(#abg)"/>

  <!-- Grid dots -->
  <g opacity="0.06" fill="#8899bb">
    <circle cx="50"  cy="50"  r="1.5"/><circle cx="150" cy="50"  r="1.5"/><circle cx="250" cy="50"  r="1.5"/>
    <circle cx="350" cy="50"  r="1.5"/><circle cx="450" cy="50"  r="1.5"/><circle cx="550" cy="50"  r="1.5"/>
    <circle cx="50"  cy="150" r="1.5"/><circle cx="150" cy="150" r="1.5"/><circle cx="250" cy="150" r="1.5"/>
    <circle cx="350" cy="150" r="1.5"/><circle cx="450" cy="150" r="1.5"/><circle cx="550" cy="150" r="1.5"/>
    <circle cx="50"  cy="250" r="1.5"/><circle cx="150" cy="250" r="1.5"/><circle cx="250" cy="250" r="1.5"/>
    <circle cx="350" cy="250" r="1.5"/><circle cx="450" cy="250" r="1.5"/><circle cx="550" cy="250" r="1.5"/>
    <circle cx="100" cy="100" r="1"/><circle cx="200" cy="100" r="1"/><circle cx="300" cy="100" r="1"/>
    <circle cx="400" cy="100" r="1"/><circle cx="500" cy="100" r="1"/>
    <circle cx="100" cy="200" r="1"/><circle cx="200" cy="200" r="1"/><circle cx="300" cy="200" r="1"/>
    <circle cx="400" cy="200" r="1"/><circle cx="500" cy="200" r="1"/>
  </g>

  <!-- Ambient glow blobs -->
  <circle cx="300" cy="150" r="120" fill="#e8761a" opacity="0.025"/>
  <circle cx="480" cy="100" r="80"  fill="#2dc3af" opacity="0.03"/>
  <circle cx="120" cy="220" r="70"  fill="#8b5cf6" opacity="0.03"/>

  <!-- ═══ CONNECTIONS ═══ -->
  <!-- Trigger → OpenAI -->
  <path d="M120,108 C165,108 165,108 200,108" fill="none" stroke="#e8761a" stroke-width="1.5"
    stroke-dasharray="5,3" opacity="0.55" marker-end="url(#arr)"/>
  <!-- OpenAI → Make -->
  <path d="M288,108 C330,108 330,108 352,108" fill="none" stroke="#e8761a" stroke-width="1.5"
    stroke-dasharray="5,3" opacity="0.55" marker-end="url(#arr)"/>
  <!-- Make → Airtable top -->
  <path d="M440,90 C480,90 490,68 490,68" fill="none" stroke="#2dc3af" stroke-width="1.5"
    stroke-dasharray="4,3" opacity="0.5" marker-end="url(#arr2)"/>
  <!-- Make → Slack bottom -->
  <path d="M440,126 C480,126 490,188 490,188" fill="none" stroke="#2dc3af" stroke-width="1.5"
    stroke-dasharray="4,3" opacity="0.5" marker-end="url(#arr2)"/>
  <!-- Make → Notion -->
  <path d="M440,108 L552,108" fill="none" stroke="#8b5cf6" stroke-width="1.5"
    stroke-dasharray="4,3" opacity="0.5" marker-end="url(#arr3)"/>
  <!-- Trigger → Filter (secondary path) -->
  <path d="M120,180 C165,180 165,200 200,200" fill="none" stroke="#8b5cf6" stroke-width="1"
    stroke-dasharray="4,3" opacity="0.35" marker-end="url(#arr3)"/>
  <!-- Filter → Make bottom -->
  <path d="M288,200 C320,200 340,140 352,126" fill="none" stroke="#8b5cf6" stroke-width="1"
    stroke-dasharray="4,3" opacity="0.35" marker-end="url(#arr3)"/>

  <!-- Data packet dots on wires -->
  <circle cx="160" cy="108" r="3.5" fill="#e8761a" opacity="0.9" filter="url(#aglow)"/>
  <circle cx="320" cy="108" r="3"   fill="#e8761a" opacity="0.8"/>
  <circle cx="466" cy="94"  r="3"   fill="#2dc3af" opacity="0.85" filter="url(#aglow)"/>
  <circle cx="466" cy="140" r="3"   fill="#2dc3af" opacity="0.7"/>
  <circle cx="496" cy="108" r="2.5" fill="#8b5cf6" opacity="0.8"/>

  <!-- ═══ NODES ═══ -->
  <!-- NODE: Trigger / Webhook -->
  <rect x="24" y="78" width="96" height="60" rx="10" fill="url(#anode)" stroke="#e8761a" stroke-width="1.2"/>
  <rect x="24" y="78" width="96" height="4" rx="10" fill="#e8761a" opacity="0.8"/>
  <rect x="34" y="90" width="24" height="24" rx="6" fill="#e8761a" opacity="0.15"/>
  <!-- webhook icon -->
  <path d="M40,97 Q46,91 52,97 Q58,103 46,107" fill="none" stroke="#e8761a" stroke-width="1.5" stroke-linecap="round"/>
  <circle cx="46" cy="107" r="2" fill="#e8761a"/>
  <rect x="64" y="93" width="48" height="6" rx="3" fill="#c8d4f0" opacity="0.7"/>
  <rect x="64" y="103" width="36" height="4" rx="2" fill="#3a4a6a"/>
  <rect x="64" y="111" width="28" height="4" rx="2" fill="#e8761a" opacity="0.6"/>

  <!-- NODE: OpenAI -->
  <rect x="200" y="78" width="88" height="60" rx="10" fill="url(#anode)" stroke="#2a3860" stroke-width="1"/>
  <rect x="200" y="78" width="88" height="4" rx="10" fill="#e8761a" opacity="0.4"/>
  <rect x="210" y="90" width="24" height="24" rx="6" fill="#e8761a" opacity="0.1"/>
  <!-- brain/AI icon -->
  <path d="M216,96 Q222,92 228,96 Q232,100 228,104 Q224,108 216,106 Q212,100 216,96Z"
    fill="none" stroke="#e8761a" stroke-width="1.2"/>
  <line x1="222" y1="92" x2="222" y2="89" stroke="#e8761a" stroke-width="1" opacity="0.6"/>
  <line x1="228" y1="98" x2="231" y2="98" stroke="#e8761a" stroke-width="1" opacity="0.6"/>
  <rect x="240" y="93" width="40" height="6" rx="3" fill="#c8d4f0" opacity="0.7"/>
  <rect x="240" y="103" width="30" height="4" rx="2" fill="#3a4a6a"/>
  <rect x="240" y="111" width="38" height="4" rx="2" fill="#e8761a" opacity="0.5"/>
  <!-- gpt response lines -->
  <rect x="210" y="118" width="68" height="4" rx="2" fill="#1e2840"/>
  <rect x="210" y="118" width="52" height="4" rx="2" fill="#e8761a" opacity="0.3"/>
  <rect x="210" y="126" width="68" height="4" rx="2" fill="#1e2840" opacity="0.5"/>

  <!-- NODE: Make (hub) — larger -->
  <rect x="352" y="68" width="88" height="80" rx="10" fill="url(#anode)" stroke="#e8761a" stroke-width="1.5" filter="url(#aglow)"/>
  <rect x="352" y="68" width="88" height="5" rx="10" fill="url(#afox)"/>
  <rect x="362" y="82" width="24" height="24" rx="6" fill="#e8761a" opacity="0.2"/>
  <!-- gear icon -->
  <circle cx="374" cy="94" r="7" fill="none" stroke="#e8761a" stroke-width="1.5"/>
  <circle cx="374" cy="94" r="3" fill="#e8761a" opacity="0.7"/>
  <line x1="374" y1="85" x2="374" y2="87" stroke="#e8761a" stroke-width="1.5" stroke-linecap="round"/>
  <line x1="374" y1="101" x2="374" y2="103" stroke="#e8761a" stroke-width="1.5" stroke-linecap="round"/>
  <line x1="365" y1="94" x2="367" y2="94" stroke="#e8761a" stroke-width="1.5" stroke-linecap="round"/>
  <line x1="381" y1="94" x2="383" y2="94" stroke="#e8761a" stroke-width="1.5" stroke-linecap="round"/>
  <rect x="394" y="85" width="38" height="6" rx="3" fill="#c8d4f0" opacity="0.85"/>
  <rect x="394" y="95" width="26" height="4" rx="2" fill="#3a4a6a"/>
  <!-- scenarios count -->
  <rect x="362" y="114" width="68" height="24" rx="6" fill="#0f1420"/>
  <rect x="368" y="120" width="24" height="12" rx="4" fill="#e8761a" opacity="0.15"/>
  <rect x="372" y="123" width="16" height="6" rx="2" fill="#e8761a" opacity="0.8"/>
  <rect x="400" y="120" width="24" height="12" rx="4" fill="#2dc3af" opacity="0.1"/>
  <rect x="404" y="123" width="16" height="6" rx="2" fill="#2dc3af" opacity="0.6"/>

  <!-- NODE: Airtable -->
  <rect x="454" y="40" width="80" height="52" rx="9" fill="url(#anode)" stroke="#2a3860" stroke-width="1"/>
  <rect x="454" y="40" width="80" height="4" rx="9" fill="#2dc3af" opacity="0.7"/>
  <rect x="462" y="52" width="20" height="20" rx="5" fill="#2dc3af" opacity="0.15"/>
  <!-- table icon -->
  <rect x="465" y="56" width="14" height="3" rx="1" fill="#2dc3af" opacity="0.8"/>
  <rect x="465" y="61" width="14" height="3" rx="1" fill="#2dc3af" opacity="0.5"/>
  <rect x="465" y="66" width="14" height="3" rx="1" fill="#2dc3af" opacity="0.3"/>
  <rect x="490" y="55" width="38" height="5" rx="2" fill="#c8d4f0" opacity="0.7"/>
  <rect x="490" y="64" width="28" height="4" rx="2" fill="#3a4a6a"/>
  <rect x="490" y="72" width="34" height="10" rx="3" fill="#1a2438"/>
  <rect x="492" y="74" width="20" height="6" rx="2" fill="#2dc3af" opacity="0.5"/>

  <!-- NODE: Slack/Notify -->
  <rect x="454" y="164" width="80" height="52" rx="9" fill="url(#anode)" stroke="#2a3860" stroke-width="1"/>
  <rect x="454" y="164" width="80" height="4" rx="9" fill="#8b5cf6" opacity="0.7"/>
  <rect x="462" y="176" width="20" height="20" rx="5" fill="#8b5cf6" opacity="0.15"/>
  <!-- message icon -->
  <rect x="465" y="179" width="14" height="11" rx="2" fill="none" stroke="#8b5cf6" stroke-width="1.2" opacity="0.8"/>
  <line x1="467" y1="183" x2="477" y2="183" stroke="#8b5cf6" stroke-width="1" opacity="0.6"/>
  <line x1="467" y1="186" x2="474" y2="186" stroke="#8b5cf6" stroke-width="1" opacity="0.4"/>
  <rect x="490" y="179" width="36" height="5" rx="2" fill="#c8d4f0" opacity="0.7"/>
  <rect x="490" y="188" width="26" height="4" rx="2" fill="#3a4a6a"/>
  <rect x="462" y="202" width="68" height="10" rx="3" fill="#1a2438"/>
  <rect x="464" y="204" width="36" height="6" rx="2" fill="#8b5cf6" opacity="0.4"/>

  <!-- NODE: Notion -->
  <rect x="552" y="82" width="38" height="52" rx="9" fill="url(#anode)" stroke="#2a3860" stroke-width="1"/>
  <rect x="552" y="82" width="38" height="4" rx="9" fill="#8b5cf6" opacity="0.5"/>
  <rect x="558" y="95" width="26" height="5" rx="2" fill="#c8d4f0" opacity="0.6"/>
  <rect x="558" y="104" width="22" height="4" rx="2" fill="#3a4a6a"/>
  <rect x="558" y="112" width="24" height="4" rx="2" fill="#3a4a6a" opacity="0.6"/>
  <rect x="558" y="120" width="18" height="4" rx="2" fill="#8b5cf6" opacity="0.4"/>

  <!-- NODE: Filter (secondary) -->
  <rect x="200" y="168" width="88" height="52" rx="9" fill="url(#anode)" stroke="#2a3860" stroke-width="1"/>
  <rect x="200" y="168" width="88" height="4" rx="9" fill="#8b5cf6" opacity="0.5"/>
  <rect x="210" y="180" width="20" height="20" rx="5" fill="#8b5cf6" opacity="0.1"/>
  <!-- filter icon -->
  <path d="M213,183 L216,188 L216,196 L218,196 L218,188 L221,183Z" fill="#8b5cf6" opacity="0.7"/>
  <rect x="238" y="183" width="42" height="5" rx="2" fill="#c8d4f0" opacity="0.6"/>
  <rect x="238" y="192" width="32" height="4" rx="2" fill="#3a4a6a"/>
  <!-- filter rules -->
  <rect x="210" y="204" width="68" height="10" rx="3" fill="#0f1420"/>
  <rect x="212" y="206" width="20" height="6" rx="2" fill="#8b5cf6" opacity="0.5"/>
  <rect x="236" y="208" width="38" height="4" rx="2" fill="#3a4a6a" opacity="0.6"/>

  <!-- STAT STRIP at bottom -->
  <rect x="14" y="248" width="572" height="40" rx="8" fill="#0f1420" opacity="0.8"/>
  <rect x="14" y="248" width="1" height="40" fill="#e8761a" opacity="0.6"/>
  <!-- stats -->
  <rect x="30" y="257" width="50" height="5" rx="2" fill="#3a4a6a"/>
  <rect x="30" y="265" width="36" height="8" rx="3" fill="#e8761a" opacity="0.8"/>
  <line x1="110" y1="252" x2="110" y2="284" stroke="#1e2840" stroke-width="1"/>
  <rect x="122" y="257" width="60" height="5" rx="2" fill="#3a4a6a"/>
  <rect x="122" y="265" width="40" height="8" rx="3" fill="#c8d4f0" opacity="0.75"/>
  <line x1="205" y1="252" x2="205" y2="284" stroke="#1e2840" stroke-width="1"/>
  <rect x="217" y="257" width="55" height="5" rx="2" fill="#3a4a6a"/>
  <rect x="217" y="265" width="44" height="8" rx="3" fill="#2dc3af" opacity="0.8"/>
  <line x1="308" y1="252" x2="308" y2="284" stroke="#1e2840" stroke-width="1"/>
  <rect x="320" y="257" width="80" height="5" rx="2" fill="#3a4a6a"/>
  <rect x="320" y="265" width="30" height="8" rx="3" fill="#8b5cf6" opacity="0.8"/>
  <line x1="430" y1="252" x2="430" y2="284" stroke="#1e2840" stroke-width="1"/>
  <!-- progress bar -->
  <rect x="442" y="260" width="130" height="7" rx="3" fill="#1e2840"/>
  <rect x="442" y="260" width="104" height="7" rx="3" fill="#e8761a" opacity="0.7"/>
  <rect x="442" y="270" width="90" height="5" rx="2" fill="#3a4a6a" opacity="0.5"/>
</svg>
