<svg viewBox="0 0 1200 340" xmlns="http://www.w3.org/2000/svg" font-family="system-ui,sans-serif">
  <defs>
    <linearGradient id="bg0" x1="0" y1="0" x2="1" y2="1">
      <stop offset="0%" stop-color="#0d1117"/>
      <stop offset="100%" stop-color="#131a2a"/>
    </linearGradient>
    <linearGradient id="bar1" x1="0" y1="0" x2="0" y2="1">
      <stop offset="0%" stop-color="#e8761a"/>
      <stop offset="100%" stop-color="#e8761a" stop-opacity="0.5"/>
    </linearGradient>
    <linearGradient id="bar2" x1="0" y1="0" x2="0" y2="1">
      <stop offset="0%" stop-color="#2dc3af"/>
      <stop offset="100%" stop-color="#2dc3af" stop-opacity="0.4"/>
    </linearGradient>
    <linearGradient id="sidebg" x1="0" y1="0" x2="1" y2="0">
      <stop offset="0%" stop-color="#101520"/>
      <stop offset="100%" stop-color="#111824"/>
    </linearGradient>
    <filter id="glow1">
      <feGaussianBlur stdDeviation="8" result="blur"/>
      <feMerge><feMergeNode in="blur"/><feMergeNode in="SourceGraphic"/></feMerge>
    </filter>
  </defs>

  <!-- Background -->
  <rect width="1200" height="340" fill="url(#bg0)"/>

  <!-- Subtle grid -->
  <g opacity="0.04" stroke="#8899bb" stroke-width="0.5">
    <line x1="0" y1="85" x2="1200" y2="85"/><line x1="0" y1="170" x2="1200" y2="170"/>
    <line x1="0" y1="255" x2="1200" y2="255"/>
    <line x1="200" y1="0" x2="200" y2="340"/><line x1="400" y1="0" x2="400" y2="340"/>
    <line x1="600" y1="0" x2="600" y2="340"/><line x1="800" y1="0" x2="800" y2="340"/>
    <line x1="1000" y1="0" x2="1000" y2="340"/>
  </g>

  <!-- === LEFT SIDEBAR === -->
  <rect width="190" height="340" fill="url(#sidebg)"/>
  <rect x="0" y="0" width="1" height="340" fill="#1e2840"/>

  <!-- Logo area -->
  <rect x="18" y="18" width="28" height="28" rx="7" fill="#e8761a" opacity="0.9"/>
  <text x="27" y="36" fill="#fff" font-size="13" font-weight="700">A</text>
  <rect x="56" y="22" width="80" height="7" rx="3" fill="#2a3550"/>
  <rect x="56" y="33" width="55" height="5" rx="2" fill="#1e2840"/>

  <!-- Nav items -->
  <g>
    <rect x="12" y="72" width="166" height="34" rx="7" fill="#e8761a" opacity="0.15"/>
    <rect x="20" y="82" width="14" height="14" rx="3" fill="#e8761a" opacity="0.8"/>
    <rect x="42" y="85" width="70" height="7" rx="3" fill="#e8761a" opacity="0.9"/>

    <rect x="20" y="120" width="14" height="14" rx="3" fill="#2a3550"/>
    <rect x="42" y="123" width="60" height="7" rx="3" fill="#3a4a6a"/>

    <rect x="20" y="152" width="14" height="14" rx="3" fill="#2a3550"/>
    <rect x="42" y="155" width="75" height="7" rx="3" fill="#3a4a6a"/>

    <rect x="20" y="184" width="14" height="14" rx="3" fill="#2a3550"/>
    <rect x="42" y="187" width="55" height="7" rx="3" fill="#3a4a6a"/>

    <rect x="20" y="216" width="14" height="14" rx="3" fill="#2a3550"/>
    <rect x="42" y="219" width="80" height="7" rx="3" fill="#3a4a6a"/>
  </g>

  <!-- User badge at bottom -->
  <rect x="12" y="296" width="166" height="32" rx="7" fill="#1e2840"/>
  <circle cx="28" cy="312" r="10" fill="#e8761a" opacity="0.3"/>
  <circle cx="28" cy="312" r="6" fill="#e8761a" opacity="0.7"/>
  <rect x="46" y="306" width="70" height="6" rx="3" fill="#3a4a6a"/>
  <rect x="46" y="316" width="50" height="4" rx="2" fill="#2a3550"/>

  <!-- === MAIN CONTENT === -->
  <!-- Top header -->
  <rect x="200" y="0" width="1000" height="52" fill="#0f1420" opacity="0.7"/>
  <rect x="220" y="19" width="130" height="7" rx="3" fill="#c8d4f0" opacity="0.9"/>
  <rect x="220" y="30" width="85" height="5" rx="2" fill="#3a4a6a"/>
  <rect x="1050" y="16" width="80" height="22" rx="6" fill="#e8761a" opacity="0.9"/>
  <rect x="1060" y="23" width="60" height="8" rx="3" fill="#fff" opacity="0.9"/>
  <rect x="1145" y="16" width="36" height="22" rx="6" fill="#1e2840"/>
  <circle cx="1163" cy="27" r="7" fill="#2a3550"/>
  <circle cx="1163" cy="27" r="4" fill="#e8761a" opacity="0.6"/>

  <!-- === STAT CARDS === -->
  <!-- Card 1 -->
  <rect x="208" y="64" width="186" height="82" rx="10" fill="#151d2e" stroke="#1e2c45" stroke-width="1"/>
  <rect x="222" y="76" width="32" height="32" rx="8" fill="#e8761a" opacity="0.15"/>
  <text x="232" y="97" fill="#e8761a" font-size="16">⌂</text>
  <rect x="264" y="79" width="90" height="6" rx="3" fill="#3a4a6a"/>
  <rect x="264" y="90" width="65" height="11" rx="3" fill="#c8d4f0" opacity="0.9"/>
  <rect x="264" y="105" width="50" height="5" rx="2" fill="#e8761a" opacity="0.7"/>
  <rect x="222" y="116" width="158" height="20" rx="4" fill="#0f1420"/>
  <rect x="224" y="118" width="110" height="16" rx="3" fill="#e8761a" opacity="0.25"/>

  <!-- Card 2 -->
  <rect x="404" y="64" width="186" height="82" rx="10" fill="#151d2e" stroke="#1e2c45" stroke-width="1"/>
  <rect x="418" y="76" width="32" height="32" rx="8" fill="#2dc3af" opacity="0.15"/>
  <text x="426" y="97" fill="#2dc3af" font-size="14">$</text>
  <rect x="460" y="79" width="90" height="6" rx="3" fill="#3a4a6a"/>
  <rect x="460" y="90" width="72" height="11" rx="3" fill="#c8d4f0" opacity="0.9"/>
  <rect x="460" y="105" width="60" height="5" rx="2" fill="#2dc3af" opacity="0.7"/>
  <rect x="418" y="116" width="158" height="20" rx="4" fill="#0f1420"/>
  <rect x="420" y="118" width="130" height="16" rx="3" fill="#2dc3af" opacity="0.2"/>

  <!-- Card 3 -->
  <rect x="600" y="64" width="186" height="82" rx="10" fill="#151d2e" stroke="#1e2c45" stroke-width="1"/>
  <rect x="614" y="76" width="32" height="32" rx="8" fill="#8b5cf6" opacity="0.15"/>
  <text x="622" y="97" fill="#8b5cf6" font-size="14">◎</text>
  <rect x="656" y="79" width="85" height="6" rx="3" fill="#3a4a6a"/>
  <rect x="656" y="90" width="55" height="11" rx="3" fill="#c8d4f0" opacity="0.9"/>
  <rect x="656" y="105" width="70" height="5" rx="2" fill="#8b5cf6" opacity="0.7"/>
  <rect x="614" y="116" width="158" height="20" rx="4" fill="#0f1420"/>
  <rect x="616" y="118" width="80" height="16" rx="3" fill="#8b5cf6" opacity="0.2"/>

  <!-- Card 4 -->
  <rect x="796" y="64" width="186" height="82" rx="10" fill="#151d2e" stroke="#1e2c45" stroke-width="1"/>
  <rect x="810" y="76" width="32" height="32" rx="8" fill="#e8761a" opacity="0.1"/>
  <text x="818" y="97" fill="#e8761a" font-size="14">↑</text>
  <rect x="852" y="79" width="90" height="6" rx="3" fill="#3a4a6a"/>
  <rect x="852" y="90" width="60" height="11" rx="3" fill="#c8d4f0" opacity="0.9"/>
  <rect x="852" y="105" width="45" height="5" rx="2" fill="#e8761a" opacity="0.5"/>
  <rect x="810" y="116" width="158" height="20" rx="4" fill="#0f1420"/>
  <rect x="812" y="118" width="95" height="16" rx="3" fill="#e8761a" opacity="0.15"/>

  <!-- === CHART PANEL === -->
  <rect x="208" y="158" width="570" height="168" rx="10" fill="#151d2e" stroke="#1e2c45" stroke-width="1"/>
  <rect x="226" y="171" width="120" height="7" rx="3" fill="#c8d4f0" opacity="0.8"/>
  <rect x="226" y="182" width="80" height="5" rx="2" fill="#3a4a6a"/>
  <rect x="676" y="168" width="80" height="22" rx="6" fill="#1e2840"/>
  <rect x="682" y="174" width="68" height="10" rx="3" fill="#2a3550"/>

  <!-- Chart grid -->
  <g opacity="0.07" stroke="#8899cc" stroke-width="0.5">
    <line x1="226" y1="280" x2="762" y2="280"/>
    <line x1="226" y1="258" x2="762" y2="258"/>
    <line x1="226" y1="236" x2="762" y2="236"/>
    <line x1="226" y1="214" x2="762" y2="214"/>
  </g>

  <!-- Bar chart — sales data -->
  <g>
    <rect x="240" y="248" width="28" height="32" rx="3" fill="#1e2c45"/>
    <rect x="240" y="225" width="28" height="23" rx="3" fill="url(#bar1)"/>

    <rect x="282" y="237" width="28" height="43" rx="3" fill="#1e2c45"/>
    <rect x="282" y="205" width="28" height="32" rx="3" fill="url(#bar1)"/>

    <rect x="324" y="243" width="28" height="37" rx="3" fill="#1e2c45"/>
    <rect x="324" y="210" width="28" height="33" rx="3" fill="url(#bar1)"/>

    <rect x="366" y="230" width="28" height="50" rx="3" fill="#1e2c45"/>
    <rect x="366" y="196" width="28" height="34" rx="3" fill="url(#bar2)"/>

    <rect x="408" y="238" width="28" height="42" rx="3" fill="#1e2c45"/>
    <rect x="408" y="199" width="28" height="39" rx="3" fill="url(#bar1)"/>

    <rect x="450" y="225" width="28" height="55" rx="3" fill="#1e2c45"/>
    <rect x="450" y="188" width="28" height="37" rx="3" fill="url(#bar2)"/>

    <rect x="492" y="218" width="28" height="62" rx="3" fill="#1e2c45"/>
    <rect x="492" y="177" width="28" height="41" rx="3" fill="url(#bar1)"/>

    <rect x="534" y="226" width="28" height="54" rx="3" fill="#1e2c45"/>
    <rect x="534" y="184" width="28" height="42" rx="3" fill="url(#bar1)"/>

    <rect x="576" y="215" width="28" height="65" rx="3" fill="#1e2c45"/>
    <rect x="576" y="170" width="28" height="45" rx="3" fill="url(#bar2)"/>

    <rect x="618" y="220" width="28" height="60" rx="3" fill="#1e2c45"/>
    <rect x="618" y="173" width="28" height="47" rx="3" fill="url(#bar1)" filter="url(#glow1)"/>

    <rect x="660" y="208" width="28" height="72" rx="3" fill="#1e2c45"/>
    <rect x="660" y="163" width="28" height="45" rx="3" fill="url(#bar1)"/>

    <rect x="702" y="200" width="28" height="80" rx="3" fill="#1e2c45"/>
    <rect x="702" y="155" width="28" height="45" rx="3" fill="url(#bar1)"/>

    <rect x="740" y="212" width="14" height="68" rx="3" fill="#1e2c45" opacity="0.5"/>
  </g>

  <!-- Trend line -->
  <polyline
    points="254,240 296,222 338,218 380,205 422,207 464,196 506,185 548,183 590,172 632,170 674,160 716,155"
    fill="none" stroke="#e8761a" stroke-width="1.5" stroke-dasharray="4,3" opacity="0.6"/>

  <!-- === PROPERTIES LIST === -->
  <rect x="790" y="158" width="394" height="168" rx="10" fill="#151d2e" stroke="#1e2c45" stroke-width="1"/>
  <rect x="808" y="171" width="110" height="7" rx="3" fill="#c8d4f0" opacity="0.8"/>
  <rect x="808" y="182" width="70" height="5" rx="2" fill="#3a4a6a"/>
  <rect x="1110" y="168" width="60" height="22" rx="6" fill="#e8761a" opacity="0.15"/>
  <rect x="1116" y="174" width="48" height="10" rx="3" fill="#e8761a" opacity="0.8"/>

  <!-- Property rows -->
  <g>
    <rect x="804" y="198" width="370" height="38" rx="6" fill="#1e2840"/>
    <rect x="814" y="207" width="30" height="20" rx="5" fill="#e8761a" opacity="0.2"/>
    <rect x="854" y="210" width="110" height="6" rx="3" fill="#c8d4f0" opacity="0.8"/>
    <rect x="854" y="220" width="75" height="4" rx="2" fill="#3a4a6a"/>
    <rect x="1064" y="207" width="50" height="8" rx="4" fill="#2dc3af" opacity="0.2"/>
    <rect x="1068" y="209" width="42" height="4" rx="2" fill="#2dc3af" opacity="0.9"/>
    <rect x="1124" y="207" width="40" height="20" rx="4" fill="#e8761a" opacity="0.15"/>
    <rect x="1128" y="213" width="32" height="8" rx="3" fill="#e8761a" opacity="0.8"/>

    <rect x="804" y="244" width="370" height="38" rx="6" fill="#121a2c"/>
    <rect x="814" y="253" width="30" height="20" rx="5" fill="#8b5cf6" opacity="0.2"/>
    <rect x="854" y="256" width="95" height="6" rx="3" fill="#c8d4f0" opacity="0.8"/>
    <rect x="854" y="266" width="60" height="4" rx="2" fill="#3a4a6a"/>
    <rect x="1064" y="253" width="50" height="8" rx="4" fill="#e8761a" opacity="0.2"/>
    <rect x="1068" y="255" width="42" height="4" rx="2" fill="#e8761a" opacity="0.9"/>
    <rect x="1124" y="253" width="40" height="20" rx="4" fill="#8b5cf6" opacity="0.15"/>
    <rect x="1128" y="259" width="32" height="8" rx="3" fill="#8b5cf6" opacity="0.8"/>

    <rect x="804" y="290" width="370" height="28" rx="6" fill="#1e2840" opacity="0.5"/>
    <rect x="814" y="298" width="30" height="12" rx="4" fill="#2dc3af" opacity="0.15"/>
    <rect x="854" y="300" width="100" height="5" rx="2" fill="#3a4a6a" opacity="0.7"/>
    <rect x="1128" y="298" width="32" height="5" rx="2" fill="#3a4a6a" opacity="0.5"/>
  </g>

  <!-- Orange accent glow -->
  <circle cx="700" cy="170" r="90" fill="#e8761a" opacity="0.03"/>
</svg>
