<svg viewBox="0 0 600 300" xmlns="http://www.w3.org/2000/svg" font-family="system-ui,sans-serif">
  <defs>
    <linearGradient id="lbg" x1="0" y1="0" x2="1" y2="1">
      <stop offset="0%" stop-color="#0d1117"/>
      <stop offset="100%" stop-color="#111a28"/>
    </linearGradient>
    <linearGradient id="prog1" x1="0" y1="0" x2="1" y2="0">
      <stop offset="0%" stop-color="#e8761a"/>
      <stop offset="100%" stop-color="#f59e3a"/>
    </linearGradient>
    <linearGradient id="prog2" x1="0" y1="0" x2="1" y2="0">
      <stop offset="0%" stop-color="#2dc3af"/>
      <stop offset="100%" stop-color="#38d9c4"/>
    </linearGradient>
    <linearGradient id="prog3" x1="0" y1="0" x2="1" y2="0">
      <stop offset="0%" stop-color="#8b5cf6"/>
      <stop offset="100%" stop-color="#a78bfa"/>
    </linearGradient>
    <clipPath id="card1clip"><rect x="14" y="80" width="170" height="96" rx="9"/></clipPath>
    <clipPath id="card2clip"><rect x="196" y="80" width="170" height="96" rx="9"/></clipPath>
    <clipPath id="card3clip"><rect x="378" y="80" width="170" height="96" rx="9"/></clipPath>
  </defs>

  <rect width="600" height="300" fill="url(#lbg)"/>

  <!-- grid -->
  <g opacity="0.04" stroke="#8899bb" stroke-width="0.5">
    <line x1="0" y1="75" x2="600" y2="75"/><line x1="0" y1="150" x2="600" y2="150"/>
    <line x1="0" y1="225" x2="600" y2="225"/>
    <line x1="150" y1="0" x2="150" y2="300"/><line x1="300" y1="0" x2="300" y2="300"/>
    <line x1="450" y1="0" x2="450" y2="300"/>
  </g>

  <!-- TOP BAR -->
  <rect width="600" height="54" fill="#0f1421" opacity="0.9"/>
  <circle cx="22" cy="27" r="10" fill="#e8761a" opacity="0.85"/>
  <text x="18" y="31" fill="#fff" font-size="11" font-weight="700">L</text>
  <rect x="42" y="21" width="90" height="7" rx="3" fill="#2a3550"/>
  <rect x="42" y="32" width="60" height="4" rx="2" fill="#1e2840"/>
  <!-- nav tabs -->
  <rect x="200" y="18" width="60" height="20" rx="5" fill="#e8761a" opacity="0.9"/>
  <rect x="205" y="24" width="50" height="8" rx="2" fill="#fff" opacity="0.9"/>
  <rect x="272" y="18" width="60" height="20" rx="5" fill="#1e2840"/>
  <rect x="277" y="24" width="50" height="8" rx="2" fill="#3a4a6a"/>
  <rect x="344" y="18" width="70" height="20" rx="5" fill="#1e2840"/>
  <rect x="349" y="24" width="60" height="8" rx="2" fill="#3a4a6a"/>
  <!-- search -->
  <rect x="490" y="17" width="96" height="22" rx="6" fill="#1a2236"/>
  <rect x="500" y="23" width="80" height="8" rx="3" fill="#2a3550"/>

  <!-- SECTION LABEL -->
  <rect x="14" y="62" width="110" height="7" rx="3" fill="#c8d4f0" opacity="0.8"/>
  <rect x="14" y="72" width="75" height="4" rx="2" fill="#3a4a6a"/>
  <rect x="520" y="62" width="66" height="14" rx="6" fill="#e8761a" opacity="0.15"/>
  <rect x="526" y="65" width="54" height="8" rx="3" fill="#e8761a" opacity="0.8"/>

  <!-- COURSE CARD 1 -->
  <rect x="14" y="80" width="170" height="96" rx="9" fill="#151d2e" stroke="#1e2c45" stroke-width="1"/>
  <!-- thumbnail -->
  <rect x="14" y="80" width="170" height="52" rx="0" fill="#0f1825" clip-path="url(#card1clip)"/>
  <rect x="14" y="80" width="170" height="52" fill="#101520"/>
  <!-- play button -->
  <circle cx="99" cy="106" r="16" fill="#e8761a" opacity="0.2"/>
  <circle cx="99" cy="106" r="10" fill="#e8761a" opacity="0.8"/>
  <polygon points="96,101 96,111 106,106" fill="#fff"/>
  <!-- wave lines decoration -->
  <g opacity="0.15">
    <line x1="14" y1="88" x2="184" y2="88" stroke="#e8761a" stroke-width="0.5"/>
    <line x1="14" y1="96" x2="184" y2="96" stroke="#e8761a" stroke-width="0.5"/>
    <line x1="14" y1="104" x2="80" y2="104" stroke="#e8761a" stroke-width="0.5"/>
    <line x1="118" y1="104" x2="184" y2="104" stroke="#e8761a" stroke-width="0.5"/>
    <line x1="14" y1="120" x2="184" y2="120" stroke="#e8761a" stroke-width="0.5"/>
    <line x1="14" y1="128" x2="184" y2="128" stroke="#e8761a" stroke-width="0.5"/>
  </g>
  <!-- card body -->
  <rect x="22" y="139" width="110" height="6" rx="3" fill="#c8d4f0" opacity="0.85"/>
  <rect x="22" y="149" width="80" height="4" rx="2" fill="#3a4a6a"/>
  <!-- progress -->
  <rect x="22" y="158" width="152" height="5" rx="2" fill="#1a2438"/>
  <rect x="22" y="158" width="109" height="5" rx="2" fill="url(#prog1)"/>
  <rect x="22" y="167" width="30" height="4" rx="2" fill="#e8761a" opacity="0.7"/>
  <rect x="152" y="165" width="22" height="7" rx="3" fill="#e8761a" opacity="0.2"/>

  <!-- COURSE CARD 2 -->
  <rect x="196" y="80" width="170" height="96" rx="9" fill="#151d2e" stroke="#1e2c45" stroke-width="1"/>
  <rect x="196" y="80" width="170" height="52" fill="#10181e"/>
  <circle cx="281" cy="106" r="16" fill="#2dc3af" opacity="0.2"/>
  <circle cx="281" cy="106" r="10" fill="#2dc3af" opacity="0.8"/>
  <polygon points="278,101 278,111 288,106" fill="#fff"/>
  <g opacity="0.12">
    <line x1="196" y1="88" x2="366" y2="88" stroke="#2dc3af" stroke-width="0.5"/>
    <line x1="196" y1="96" x2="366" y2="96" stroke="#2dc3af" stroke-width="0.5"/>
    <line x1="196" y1="104" x2="264" y2="104" stroke="#2dc3af" stroke-width="0.5"/>
    <line x1="298" y1="104" x2="366" y2="104" stroke="#2dc3af" stroke-width="0.5"/>
    <line x1="196" y1="120" x2="366" y2="120" stroke="#2dc3af" stroke-width="0.5"/>
    <line x1="196" y1="128" x2="366" y2="128" stroke="#2dc3af" stroke-width="0.5"/>
  </g>
  <rect x="204" y="139" width="100" height="6" rx="3" fill="#c8d4f0" opacity="0.85"/>
  <rect x="204" y="149" width="70" height="4" rx="2" fill="#3a4a6a"/>
  <rect x="204" y="158" width="152" height="5" rx="2" fill="#1a2438"/>
  <rect x="204" y="158" width="68" height="5" rx="2" fill="url(#prog2)"/>
  <rect x="204" y="167" width="30" height="4" rx="2" fill="#2dc3af" opacity="0.7"/>
  <rect x="334" y="165" width="22" height="7" rx="3" fill="#2dc3af" opacity="0.2"/>

  <!-- COURSE CARD 3 -->
  <rect x="378" y="80" width="170" height="96" rx="9" fill="#151d2e" stroke="#1e2c45" stroke-width="1"/>
  <rect x="378" y="80" width="170" height="52" fill="#14101e"/>
  <circle cx="463" cy="106" r="16" fill="#8b5cf6" opacity="0.2"/>
  <circle cx="463" cy="106" r="10" fill="#8b5cf6" opacity="0.8"/>
  <polygon points="460,101 460,111 470,106" fill="#fff"/>
  <g opacity="0.1">
    <line x1="378" y1="88" x2="548" y2="88" stroke="#8b5cf6" stroke-width="0.5"/>
    <line x1="378" y1="96" x2="548" y2="96" stroke="#8b5cf6" stroke-width="0.5"/>
    <line x1="378" y1="104" x2="444" y2="104" stroke="#8b5cf6" stroke-width="0.5"/>
    <line x1="482" y1="104" x2="548" y2="104" stroke="#8b5cf6" stroke-width="0.5"/>
    <line x1="378" y1="120" x2="548" y2="120" stroke="#8b5cf6" stroke-width="0.5"/>
    <line x1="378" y1="128" x2="548" y2="128" stroke="#8b5cf6" stroke-width="0.5"/>
  </g>
  <rect x="386" y="139" width="120" height="6" rx="3" fill="#c8d4f0" opacity="0.85"/>
  <rect x="386" y="149" width="85" height="4" rx="2" fill="#3a4a6a"/>
  <rect x="386" y="158" width="152" height="5" rx="2" fill="#1a2438"/>
  <rect x="386" y="158" width="130" height="5" rx="2" fill="url(#prog3)"/>
  <rect x="386" y="167" width="30" height="4" rx="2" fill="#8b5cf6" opacity="0.7"/>
  <rect x="516" y="165" width="22" height="7" rx="3" fill="#8b5cf6" opacity="0.2"/>

  <!-- BOTTOM: STUDENT PROGRESS PANEL -->
  <rect x="14" y="190" width="360" height="96" rx="9" fill="#151d2e" stroke="#1e2c45" stroke-width="1"/>
  <rect x="28" y="203" width="120" height="7" rx="3" fill="#c8d4f0" opacity="0.8"/>
  <rect x="28" y="214" width="80" height="4" rx="2" fill="#3a4a6a"/>
  <!-- Student rows -->
  <g>
    <circle cx="36" cy="236" r="9" fill="#e8761a" opacity="0.3"/>
    <circle cx="36" cy="236" r="5" fill="#e8761a" opacity="0.8"/>
    <rect x="52" y="230" width="80" height="5" rx="2" fill="#c8d4f0" opacity="0.7"/>
    <rect x="52" y="239" width="55" height="4" rx="2" fill="#3a4a6a"/>
    <rect x="188" y="229" width="110" height="7" rx="3" fill="#1a2438"/>
    <rect x="188" y="229" width="88" height="7" rx="3" fill="#e8761a" opacity="0.7"/>
    <rect x="304" y="229" width="56" height="14" rx="4" fill="#e8761a" opacity="0.15"/>
    <rect x="308" y="232" width="48" height="8" rx="3" fill="#e8761a" opacity="0.8"/>

    <circle cx="36" cy="259" r="9" fill="#2dc3af" opacity="0.3"/>
    <circle cx="36" cy="259" r="5" fill="#2dc3af" opacity="0.8"/>
    <rect x="52" y="253" width="90" height="5" rx="2" fill="#c8d4f0" opacity="0.7"/>
    <rect x="52" y="262" width="60" height="4" rx="2" fill="#3a4a6a"/>
    <rect x="188" y="252" width="110" height="7" rx="3" fill="#1a2438"/>
    <rect x="188" y="252" width="45" height="7" rx="3" fill="#2dc3af" opacity="0.7"/>
    <rect x="304" y="252" width="56" height="14" rx="4" fill="#2dc3af" opacity="0.15"/>
    <rect x="308" y="255" width="48" height="8" rx="3" fill="#2dc3af" opacity="0.8"/>

    <circle cx="36" cy="282" r="9" fill="#8b5cf6" opacity="0.3"/>
    <circle cx="36" cy="282" r="5" fill="#8b5cf6" opacity="0.8"/>
    <rect x="52" y="276" width="75" height="5" rx="2" fill="#c8d4f0" opacity="0.7"/>
    <rect x="52" y="285" width="50" height="4" rx="2" fill="#3a4a6a"/>
    <rect x="188" y="275" width="110" height="7" rx="3" fill="#1a2438"/>
    <rect x="188" y="275" width="95" height="7" rx="3" fill="#8b5cf6" opacity="0.7"/>
    <rect x="304" y="275" width="56" height="14" rx="4" fill="#8b5cf6" opacity="0.15"/>
    <rect x="308" y="278" width="48" height="8" rx="3" fill="#8b5cf6" opacity="0.8"/>
  </g>

  <!-- STATS RING PANEL -->
  <rect x="386" y="190" width="200" height="96" rx="9" fill="#151d2e" stroke="#1e2c45" stroke-width="1"/>
  <rect x="400" y="203" width="90" height="7" rx="3" fill="#c8d4f0" opacity="0.8"/>
  <!-- Donut -->
  <circle cx="430" cy="256" r="30" fill="none" stroke="#1a2438" stroke-width="9"/>
  <circle cx="430" cy="256" r="30" fill="none" stroke="#e8761a" stroke-width="9"
    stroke-dasharray="113 75" stroke-dashoffset="23" stroke-linecap="round"/>
  <circle cx="430" cy="256" r="30" fill="none" stroke="#2dc3af" stroke-width="9"
    stroke-dasharray="40 148" stroke-dashoffset="-90" stroke-linecap="round"/>
  <text x="430" y="260" fill="#c8d4f0" font-size="11" font-weight="700" text-anchor="middle">78%</text>
  <!-- legend -->
  <rect x="470" y="230" width="8" height="8" rx="2" fill="#e8761a"/>
  <rect x="482" y="232" width="70" height="5" rx="2" fill="#3a4a6a"/>
  <rect x="470" y="248" width="8" height="8" rx="2" fill="#2dc3af"/>
  <rect x="482" y="250" width="55" height="5" rx="2" fill="#3a4a6a"/>
  <rect x="470" y="266" width="8" height="8" rx="2" fill="#1a2438"/>
  <rect x="482" y="268" width="65" height="5" rx="2" fill="#3a4a6a"/>
</svg>
